<svg xmlns="http://www.w3.org/2000/svg" width="1100" height="470" viewBox="0 0 1100 470">
  <defs>
    <marker id="arrow" markerWidth="10" markerHeight="8" refX="9" refY="4" orient="auto" markerUnits="strokeWidth">
      <path d="M0,0 L10,4 L0,8 z" fill="#333333"/>
    </marker>
    <marker id="arrow-start" markerWidth="10" markerHeight="8" refX="1" refY="4" orient="auto" markerUnits="strokeWidth">
      <path d="M10,0 L0,4 L10,8 z" fill="#333333"/>
    </marker>
    <style>
      text { font-family: "DejaVu Sans", "Arial", sans-serif; fill: #000; }
      .title { font-size: 22px; font-weight: 700; }
      .label { font-size: 17px; font-weight: 700; }
      .small { font-size: 15px; font-weight: 700; }
      .note { font-size: 14px; }
      .arrow { stroke: #333333; stroke-width: 2.2; fill: none; marker-end: url(#arrow); }
      .bi { stroke: #333333; stroke-width: 2.2; fill: none; marker-start: url(#arrow-start); marker-end: url(#arrow); }
    </style>
  </defs>
  <rect width="1100" height="470" fill="#fff8ec"/>
  <text x="88" y="44" class="title">Buddy Zone</text>
  <rect x="36" y="72" width="230" height="360" fill="#f8d7da" stroke="#b85450" stroke-width="2"/>
  <text x="72" y="112" class="label">free_area</text>
  <text x="54" y="136" class="label">[MAX_ORDER]</text>
  <rect x="150" y="146" width="74" height="236" fill="#ded6f4" stroke="#9673a6" stroke-width="2"/>
  <line x1="150" y1="185" x2="224" y2="185" stroke="#9673a6" stroke-width="1.4"/>
  <line x1="150" y1="225" x2="224" y2="225" stroke="#9673a6" stroke-width="1.4"/>
  <line x1="150" y1="265" x2="224" y2="265" stroke="#9673a6" stroke-width="1.4"/>
  <line x1="150" y1="335" x2="224" y2="335" stroke="#9673a6" stroke-width="1.4"/>
  <text x="181" y="171" text-anchor="middle" class="label">0</text>
  <text x="181" y="211" text-anchor="middle" class="label">1</text>
  <text x="181" y="251" text-anchor="middle" class="label">2</text>
  <text x="181" y="300" text-anchor="middle" class="label">...</text>
  <text x="181" y="363" text-anchor="middle" class="label">10</text>
  <rect x="304" y="86" width="560" height="40" rx="8" fill="#eaf2f8" stroke="#6c8ebf" stroke-width="1.5"/>
  <text x="584" y="111" text-anchor="middle" class="note">same order blocks are linked together; release checks whether the buddy can be merged</text>
  <rect x="310" y="150" width="82" height="34" fill="#fff2cc" stroke="#d6b656" stroke-width="1.5"/>
  <rect x="438" y="150" width="82" height="34" fill="#fff2cc" stroke="#d6b656" stroke-width="1.5"/>
  <rect x="566" y="150" width="82" height="34" fill="#fff2cc" stroke="#d6b656" stroke-width="1.5"/>
  <text x="351" y="172" text-anchor="middle" class="small">1 page</text>
  <text x="479" y="172" text-anchor="middle" class="small">1 page</text>
  <text x="607" y="172" text-anchor="middle" class="small">1 page</text>
  <rect x="310" y="206" width="128" height="34" fill="#fff2cc" stroke="#d6b656" stroke-width="1.5"/>
  <rect x="488" y="206" width="128" height="34" fill="#fff2cc" stroke="#d6b656" stroke-width="1.5"/>
  <rect x="666" y="206" width="128" height="34" fill="#fff2cc" stroke="#d6b656" stroke-width="1.5"/>
  <text x="374" y="228" text-anchor="middle" class="small">2 pages</text>
  <text x="552" y="228" text-anchor="middle" class="small">2 pages</text>
  <text x="730" y="228" text-anchor="middle" class="small">2 pages</text>
  <rect x="310" y="262" width="166" height="34" fill="#fff2cc" stroke="#d6b656" stroke-width="1.5"/>
  <rect x="540" y="262" width="166" height="34" fill="#fff2cc" stroke="#d6b656" stroke-width="1.5"/>
  <text x="393" y="284" text-anchor="middle" class="small">4 pages</text>
  <text x="623" y="284" text-anchor="middle" class="small">4 pages</text>
  <rect x="304" y="350" width="340" height="38" fill="#fff2cc" stroke="#d6b656" stroke-width="1.5"/>
  <rect x="700" y="350" width="340" height="38" fill="#fff2cc" stroke="#d6b656" stroke-width="1.5"/>
  <text x="474" y="374" text-anchor="middle" class="small">1024 pages</text>
  <text x="870" y="374" text-anchor="middle" class="small">1024 pages</text>
  <line x1="224" y1="166" x2="306" y2="166" stroke="#333333" stroke-width="2.2"/>
  <polygon points="306,166 294,160 294,172" fill="#333333"/>
  <line x1="224" y1="206" x2="306" y2="221" stroke="#333333" stroke-width="2.2"/>
  <polygon points="306,221 293,213 291,225" fill="#333333"/>
  <line x1="224" y1="246" x2="306" y2="278" stroke="#333333" stroke-width="2.2"/>
  <polygon points="306,278 292,268 288,280" fill="#333333"/>
  <line x1="224" y1="360" x2="300" y2="368" stroke="#333333" stroke-width="2.2"/>
  <polygon points="300,368 287,361 286,373" fill="#333333"/>
  <line x1="394" y1="167" x2="434" y2="167" stroke="#333333" stroke-width="2.2"/>
  <polygon points="394,167 406,161 406,173" fill="#333333"/>
  <polygon points="434,167 422,161 422,173" fill="#333333"/>
  <line x1="522" y1="167" x2="562" y2="167" stroke="#333333" stroke-width="2.2"/>
  <polygon points="522,167 534,161 534,173" fill="#333333"/>
  <polygon points="562,167 550,161 550,173" fill="#333333"/>
  <line x1="440" y1="223" x2="484" y2="223" stroke="#333333" stroke-width="2.2"/>
  <polygon points="440,223 452,217 452,229" fill="#333333"/>
  <polygon points="484,223 472,217 472,229" fill="#333333"/>
  <line x1="618" y1="223" x2="662" y2="223" stroke="#333333" stroke-width="2.2"/>
  <polygon points="618,223 630,217 630,229" fill="#333333"/>
  <polygon points="662,223 650,217 650,229" fill="#333333"/>
  <line x1="478" y1="279" x2="536" y2="279" stroke="#333333" stroke-width="2.2"/>
  <polygon points="478,279 490,273 490,285" fill="#333333"/>
  <polygon points="536,279 524,273 524,285" fill="#333333"/>
  <line x1="646" y1="369" x2="696" y2="369" stroke="#333333" stroke-width="2.2"/>
  <polygon points="646,369 658,363 658,375" fill="#333333"/>
  <polygon points="696,369 684,363 684,375" fill="#333333"/>
</svg>
